<?xml version="1.0" standalone="no"?>
<!DOCTYPE svg PUBLIC "-//W3C//DTD SVG 20010904//EN"
 "http://www.w3.org/TR/2001/REC-SVG-20010904/DTD/svg10.dtd">
<svg version="1.0" xmlns="http://www.w3.org/2000/svg"
 width="474.000000pt" height="474.000000pt" viewBox="0 0 474.000000 474.000000"
 preserveAspectRatio="xMidYMid meet">
<metadata>
Created by potrace 1.16, written by Peter Selinger 2001-2019
</metadata>
<g transform="translate(0.000000,474.000000) scale(0.100000,-0.100000)"
fill="#000000" stroke="none">
<path d="M2307 4639 c-25 -14 -57 -86 -57 -126 0 -18 11 -76 25 -129 30 -114
31 -152 6 -219 -10 -27 -28 -77 -40 -110 -24 -66 -33 -75 -76 -75 -41 0 -251
-45 -300 -63 -138 -53 -188 -74 -257 -108 -84 -42 -216 -129 -291 -191 l-47
-40 -92 22 c-82 21 -96 28 -138 69 -25 25 -68 79 -94 118 -58 87 -86 116 -130
137 -49 23 -89 20 -120 -9 -29 -27 -33 -59 -12 -108 19 -46 53 -76 156 -137
106 -63 132 -92 189 -215 l42 -89 -21 -29 c-103 -138 -183 -292 -240 -457 -30
-88 -70 -255 -70 -297 0 -26 -38 -57 -125 -102 -51 -26 -71 -31 -130 -31 -38
0 -99 7 -135 16 -138 33 -233 16 -265 -47 -22 -41 -19 -57 18 -94 49 -49 93
-53 224 -20 130 33 186 30 293 -13 41 -16 83 -32 92 -36 13 -4 18 -16 18 -43
1 -90 44 -289 92 -423 23 -64 103 -234 128 -270 9 -14 40 -59 68 -101 l51 -76
-22 -45 c-12 -24 -33 -69 -47 -98 -32 -69 -72 -109 -157 -156 -99 -55 -121
-72 -149 -115 -49 -79 -19 -149 65 -149 72 0 109 28 179 135 81 124 124 161
214 190 82 26 123 31 132 16 8 -12 153 -121 211 -158 74 -47 267 -136 360
-165 112 -36 157 -47 263 -62 51 -7 96 -16 99 -20 15 -15 75 -185 80 -227 4
-31 -3 -76 -21 -146 -14 -56 -26 -117 -26 -135 1 -44 33 -114 60 -128 37 -20
87 -4 115 38 30 44 34 124 10 224 -8 35 -15 95 -17 133 -2 62 1 77 31 135 58
113 61 116 138 124 233 23 542 149 747 305 l59 44 56 -11 c148 -31 174 -48
259 -162 102 -138 123 -162 158 -176 76 -32 144 -2 144 63 0 76 -42 124 -164
188 -89 46 -133 96 -186 209 l-48 101 24 30 c175 219 304 514 341 780 8 61 17
119 19 130 3 20 48 52 138 100 56 30 150 33 261 10 144 -31 235 -13 262 52 17
42 11 65 -28 97 -47 40 -103 43 -227 11 -74 -19 -120 -26 -153 -22 -49 6 -236
73 -255 91 -6 6 -19 52 -29 101 -44 230 -157 481 -300 669 -30 39 -30 56 4
192 22 86 44 113 167 205 107 79 136 115 142 178 5 62 -23 101 -74 101 -71 0
-120 -44 -179 -160 -59 -117 -83 -142 -194 -199 -55 -28 -103 -51 -108 -51 -5
0 -34 19 -65 43 -31 23 -64 48 -74 54 -11 7 -36 24 -58 38 -21 14 -73 43 -115
64 -68 34 -118 55 -256 108 -48 18 -259 63 -296 63 -32 0 -62 36 -114 139 -35
69 -37 76 -30 139 3 37 13 92 21 123 21 86 18 174 -7 216 -30 48 -81 66 -122
42z m153 -765 c0 -9 -12 -14 -35 -14 -28 0 -35 -4 -35 -19 0 -15 8 -21 33 -23
20 -2 32 -8 32 -18 0 -10 -12 -16 -32 -18 -25 -2 -33 -8 -33 -23 0 -15 7 -19
35 -19 29 0 35 -4 35 -21 0 -19 -5 -20 -57 -17 l-58 4 2 83 c1 45 3 88 6 94 7
18 107 9 107 -9z m-180 14 c0 -2 7 -41 15 -87 12 -67 12 -87 2 -93 -26 -17
-31 -9 -43 77 l-8 50 -8 -45 c-16 -85 -18 -90 -36 -90 -13 0 -24 17 -39 58
l-22 57 0 -62 c-1 -56 -3 -63 -21 -63 -19 0 -20 7 -20 95 l0 95 28 0 c24 0 30
-6 45 -50 10 -28 22 -48 26 -45 5 2 11 27 15 55 6 47 8 50 36 50 17 0 30 -1
30 -2z m805 -183 c38 -37 34 -88 -9 -131 -51 -51 -110 -44 -141 17 -19 35 -8
81 26 117 29 32 92 30 124 -3z m-1377 3 c7 -7 12 -25 12 -41 0 -19 10 -36 30
-54 34 -28 37 -38 13 -47 -9 -4 -25 2 -38 14 -19 18 -55 28 -55 15 0 -4 7 -19
15 -34 12 -23 12 -31 2 -39 -7 -6 -17 -8 -23 -4 -11 7 -84 141 -84 154 0 11
72 47 96 48 11 0 25 -5 32 -12z m1511 -152 c-11 -68 -7 -79 15 -39 31 55 44
67 60 53 14 -10 12 -18 -16 -59 -18 -25 -38 -52 -45 -59 -7 -7 -17 -20 -22
-30 -8 -13 -12 -14 -25 -3 -18 15 -21 69 -7 119 13 45 -1 40 -35 -13 -27 -44
-47 -55 -59 -35 -6 10 77 137 98 152 6 3 18 -1 27 -10 16 -15 17 -25 9 -76z
m-666 63 c258 -38 502 -159 689 -341 202 -197 314 -401 375 -681 24 -111 24
-370 0 -482 -98 -465 -414 -825 -852 -973 -129 -44 -249 -62 -405 -62 -215 0
-394 41 -575 133 -330 166 -566 461 -664 829 -59 221 -49 491 26 716 34 103
121 271 185 357 64 86 198 219 281 278 147 105 354 192 527 222 94 16 318 18
413 4z m-989 -60 c39 -29 73 -54 76 -56 3 -3 -4 -11 -14 -18 -16 -12 -22 -12
-39 0 -31 21 -61 2 -53 -35 3 -18 0 -32 -9 -40 -17 -14 -22 -5 -59 99 -25 70
-26 74 -9 87 10 7 22 14 27 14 4 0 40 -23 80 -51z m-139 -113 c61 -53 65 -60
51 -74 -15 -15 -21 -12 -67 33 l-51 50 33 -61 c21 -38 30 -67 26 -78 -6 -16
-12 -15 -62 13 -30 17 -58 31 -62 31 -4 0 12 -20 36 -44 39 -39 47 -66 21 -66
-11 0 -89 82 -109 115 -13 20 -12 25 3 40 19 19 36 14 99 -28 34 -23 34 -19
-2 42 -27 45 -28 51 -14 71 8 11 19 20 23 18 5 -2 39 -29 75 -62z m1970 28
c19 -9 41 -26 49 -39 13 -20 13 -25 1 -35 -12 -10 -16 -9 -21 4 -10 27 -61 49
-84 36 -39 -21 -51 -68 -24 -95 16 -15 18 -15 33 0 13 12 13 17 3 24 -10 6
-10 10 1 19 11 9 19 6 37 -13 l24 -25 -29 -30 c-36 -38 -53 -38 -93 1 -53 52
-42 119 24 154 36 19 38 19 79 -1z m156 -163 c47 -47 39 -103 -21 -144 -37
-26 -77 -21 -111 12 -35 36 -38 77 -8 115 42 53 97 59 140 17z m-2518 -262
c-1 -8 -5 -26 -9 -41 -8 -37 21 -39 38 -3 12 28 38 34 38 9 0 -8 -5 -24 -10
-34 -8 -15 -6 -21 8 -29 16 -8 21 -4 35 24 11 24 21 33 32 29 19 -8 19 -6 -6
-65 -25 -57 -23 -57 -131 -3 l-66 33 24 51 c14 29 30 50 37 47 7 -2 11 -10 10
-18z m2723 -75 c6 -21 1 -31 -22 -49 -16 -12 -47 -39 -69 -59 -22 -19 -43 -36
-46 -36 -16 0 -18 35 -3 51 25 28 6 68 -29 62 -17 -3 -26 1 -31 13 -9 23 -7
24 65 33 117 15 128 14 135 -15z m-2718 -95 c53 -17 72 -28 72 -40 0 -24 -9
-28 -88 -43 l-67 -12 58 -19 c61 -19 76 -30 59 -47 -7 -7 -34 -2 -83 13 -88
27 -100 36 -89 65 7 18 20 23 70 29 67 8 68 14 3 35 -40 12 -52 27 -36 44 4 3
12 5 17 3 6 -3 44 -15 84 -28z m-133 -235 c0 -43 3 -50 27 -61 33 -17 73 -3
83 27 10 33 -10 48 -34 26 -26 -23 -39 -14 -33 24 5 32 14 35 71 24 29 -6 31
-9 31 -54 0 -62 -32 -100 -85 -100 -47 0 -71 14 -90 50 -18 34 -19 59 -5 95
16 42 35 25 35 -31z m2969 -111 c6 -49 5 -53 -14 -53 -16 0 -20 6 -20 35 0 28
-4 35 -19 35 -15 0 -21 -8 -23 -35 -4 -44 -20 -47 -32 -6 -6 21 -15 31 -28 31
-17 0 -19 -5 -13 -40 6 -35 5 -40 -13 -40 -16 0 -21 9 -27 56 -4 31 -5 57 -3
59 7 6 173 21 179 15 4 -3 9 -29 13 -57z m-1367 -1618 c28 -47 47 -85 43 -85
-5 0 -15 -3 -24 -6 -10 -4 -19 3 -27 20 -21 44 -99 32 -99 -16 0 -13 -8 -18
-25 -18 l-25 0 19 53 c11 28 25 71 31 95 9 34 15 42 34 42 18 0 33 -18 73 -85z"/>
<path d="M2230 3615 c-8 -2 -49 -9 -90 -15 -329 -54 -644 -261 -832 -545 -82
-125 -98 -156 -141 -280 -92 -267 -94 -564 -5 -830 85 -252 278 -499 507 -649
220 -143 421 -201 696 -201 164 1 256 14 387 56 317 101 597 343 740 639 54
111 66 144 93 249 63 241 52 494 -31 733 -44 126 -70 178 -147 293 -195 291
-525 495 -881 544 -69 10 -257 13 -296 6z m379 -55 c170 -34 324 -101 458
-197 276 -198 450 -473 509 -802 16 -92 18 -282 3 -386 -14 -105 -62 -261
-108 -354 -36 -72 -106 -190 -120 -201 -3 -3 -18 -21 -32 -40 -44 -59 -164
-170 -246 -229 -424 -303 -996 -304 -1423 -3 -81 57 -208 179 -267 256 -245
320 -317 731 -197 1125 30 100 109 258 168 339 297 403 774 590 1255 492z"/>
<path d="M2190 3520 c-261 -43 -478 -155 -666 -344 -243 -245 -361 -568 -334
-911 42 -517 396 -930 907 -1057 129 -32 399 -32 526 0 230 57 428 171 589
338 52 54 148 177 148 189 0 3 11 23 25 45 40 63 91 196 121 315 24 95 27 129
27 255 0 328 -113 603 -342 831 -170 169 -341 265 -570 320 -97 24 -338 34
-431 19z m279 -435 l126 -380 403 -3 c221 -1 402 -6 402 -10 0 -4 -14 -19 -31
-33 l-32 -26 47 -29 c25 -16 46 -34 46 -39 0 -6 -25 -35 -55 -65 l-55 -54 -22
21 c-13 12 -48 28 -78 35 l-55 14 73 54 c39 30 72 58 72 61 0 15 -106 31 -169
27 -192 -15 -320 -142 -338 -336 -7 -75 -16 -76 105 11 46 32 85 58 87 55 2
-2 -1 -24 -6 -50 -8 -37 -7 -60 5 -101 30 -103 97 -152 196 -145 53 4 68 10
126 53 10 7 28 -5 69 -45 l56 -55 -41 -36 c-90 -78 -251 -99 -379 -49 -95 37
-169 113 -201 208 -13 39 -27 72 -31 72 -3 0 -14 -8 -23 -19 -15 -17 -15 -22
-2 -57 11 -31 198 -600 230 -701 11 -34 -5 -29 -83 29 -39 29 -119 88 -178
131 -174 125 -287 207 -304 220 -49 38 -80 57 -91 57 -7 0 -65 -37 -128 -83
-105 -76 -203 -146 -335 -242 -27 -20 -84 -61 -125 -91 -41 -30 -76 -51 -78
-46 -1 5 25 94 59 198 93 289 97 302 91 308 -3 3 -86 6 -184 6 l-178 0 0 300
0 300 -28 18 c-63 39 -162 114 -162 123 0 5 167 9 403 9 l403 0 103 318 c56
174 112 347 124 384 12 37 26 67 31 65 5 -2 65 -174 135 -382z"/>
<path d="M2296 2964 c-3 -9 -6 -24 -6 -35 0 -16 -7 -19 -40 -19 -29 0 -40 -4
-40 -15 0 -12 16 -15 85 -15 54 0 85 -4 85 -11 0 -6 -21 -10 -52 -9 -122 4
-138 1 -138 -20 0 -13 7 -20 20 -20 34 0 22 -26 -20 -45 -22 -10 -40 -22 -40
-26 0 -4 26 7 58 25 86 49 116 57 155 44 17 -6 34 -14 37 -17 8 -9 109 -61
118 -61 4 0 -17 14 -45 31 -58 34 -67 49 -28 49 18 0 25 5 25 20 0 17 -7 20
-40 20 -22 0 -40 5 -40 10 0 6 14 10 30 10 20 0 30 5 30 15 0 11 -11 15 -40
15 -33 0 -40 3 -40 19 0 36 -12 51 -40 51 -16 0 -30 -7 -34 -16z"/>
<path d="M2233 2765 c-40 -19 -73 -38 -73 -43 0 -6 18 -49 40 -96 28 -61 44
-86 57 -86 10 0 28 -3 41 -6 l22 -6 0 136 c0 75 -3 136 -7 135 -5 0 -41 -15
-80 -34z"/>
<path d="M2335 2665 c0 -83 4 -135 10 -135 6 0 26 5 46 10 33 9 39 17 72 94
20 47 37 87 37 89 0 5 -148 77 -159 77 -3 0 -6 -61 -6 -135z"/>
<path d="M1468 2613 c-7 -49 5 -71 62 -112 30 -22 60 -45 67 -51 29 -24 34
-10 31 88 l-3 97 -76 3 -77 3 -4 -28z"/>
<path d="M1940 2300 l0 -340 23 -5 c13 -4 46 -5 73 -3 l49 3 5 240 c4 187 7
234 16 215 6 -14 44 -117 84 -230 39 -113 77 -211 82 -217 11 -14 86 -17 104
-5 13 8 42 82 125 312 28 80 55 149 60 155 5 5 9 -92 9 -227 0 -268 -7 -248
91 -248 53 0 59 2 64 23 3 12 4 166 3 342 l-3 320 -120 3 -120 2 -70 -210
c-38 -115 -74 -210 -80 -209 -10 0 -13 7 -91 224 -25 72 -52 145 -59 163 l-14
32 -115 0 -116 0 0 -340z"/>
<path d="M1637 2403 c-2 -4 -5 -74 -6 -155 l-2 -148 125 0 c69 0 126 -4 126
-8 0 -4 -9 -34 -21 -66 -22 -64 -15 -91 19 -70 14 9 17 28 17 110 1 62 6 108
14 123 7 13 9 26 4 30 -14 13 -209 152 -247 177 -14 8 -26 11 -29 7z"/>
</g>
</svg>
